<svg xmlns="http://www.w3.org/2000/svg" xmlns:xlink="http://www.w3.org/1999/xlink" version="1.1" x="0px" y="0px" viewBox="0 0 100 125" style="enable-background:new 0 0 100 100;" xml:space="preserve"><path d="M57.2,43.6c-0.6,0-1,0.4-1,1v2c0,0.6,0.4,1,1,1s1-0.4,1-1v-2C58.2,44.1,57.8,43.6,57.2,43.6z"/><path d="M52.3,43.6c-0.6,0-1,0.4-1,1v2c0,0.6,0.4,1,1,1s1-0.4,1-1v-2C53.3,44.1,52.8,43.6,52.3,43.6z"/><path d="M47.3,43.6c-0.6,0-1,0.4-1,1v2c0,0.6,0.4,1,1,1s1-0.4,1-1v-2C48.3,44.1,47.8,43.6,47.3,43.6z"/><path d="M57.2,51.9c-0.6,0-1,0.4-1,1v2c0,0.6,0.4,1,1,1s1-0.4,1-1v-2C58.2,52.3,57.8,51.9,57.2,51.9z"/><path d="M52.3,51.9c-0.6,0-1,0.4-1,1v2c0,0.6,0.4,1,1,1s1-0.4,1-1v-2C53.3,52.3,52.8,51.9,52.3,51.9z"/><path d="M47.3,51.9c-0.6,0-1,0.4-1,1v2c0,0.6,0.4,1,1,1s1-0.4,1-1v-2C48.3,52.3,47.8,51.9,47.3,51.9z"/><path d="M57.2,60.1c-0.6,0-1,0.4-1,1v2c0,0.6,0.4,1,1,1s1-0.4,1-1v-2C58.2,60.5,57.8,60.1,57.2,60.1z"/><path d="M52.3,60.1c-0.6,0-1,0.4-1,1v2c0,0.6,0.4,1,1,1s1-0.4,1-1v-2C53.3,60.5,52.8,60.1,52.3,60.1z"/><path d="M47.3,60.1c-0.6,0-1,0.4-1,1v2c0,0.6,0.4,1,1,1s1-0.4,1-1v-2C48.3,60.5,47.8,60.1,47.3,60.1z"/><path d="M57.2,68.3c-0.6,0-1,0.4-1,1v2c0,0.6,0.4,1,1,1s1-0.4,1-1v-2C58.2,68.8,57.8,68.3,57.2,68.3z"/><path d="M52.3,68.3c-0.6,0-1,0.4-1,1v2c0,0.6,0.4,1,1,1s1-0.4,1-1v-2C53.3,68.8,52.8,68.3,52.3,68.3z"/><path d="M47.3,68.3c-0.6,0-1,0.4-1,1v2c0,0.6,0.4,1,1,1s1-0.4,1-1v-2C48.3,68.8,47.8,68.3,47.3,68.3z"/><path d="M57.2,76.6c-0.6,0-1,0.4-1,1v2c0,0.6,0.4,1,1,1s1-0.4,1-1v-2C58.2,77,57.8,76.6,57.2,76.6z"/><path d="M52.3,76.6c-0.6,0-1,0.4-1,1v2c0,0.6,0.4,1,1,1s1-0.4,1-1v-2C53.3,77,52.8,76.6,52.3,76.6z"/><path d="M47.3,76.6c-0.6,0-1,0.4-1,1v2c0,0.6,0.4,1,1,1s1-0.4,1-1v-2C48.3,77,47.8,76.6,47.3,76.6z"/><path d="M35.2,18.3c-0.6,0-1,0.4-1,1v2.1c0,0.6,0.4,1,1,1s1-0.4,1-1v-2.1C36.2,18.8,35.8,18.3,35.2,18.3z"/><path d="M30.2,18.3c-0.6,0-1,0.4-1,1v2.1c0,0.6,0.4,1,1,1s1-0.4,1-1v-2.1C31.2,18.8,30.8,18.3,30.2,18.3z"/><path d="M35.2,27c-0.6,0-1,0.4-1,1v2.1c0,0.6,0.4,1,1,1s1-0.4,1-1V28C36.2,27.4,35.8,27,35.2,27z"/><path d="M40.4,22.4c0.6,0,1-0.4,1-1v-2.1c0-0.6-0.4-1-1-1s-1,0.4-1,1v2.1C39.4,22,39.8,22.4,40.4,22.4z"/><path d="M40.4,31.1c0.6,0,1-0.4,1-1V28c0-0.6-0.4-1-1-1s-1,0.4-1,1v2.1C39.4,30.6,39.8,31.1,40.4,31.1z"/><path d="M30.2,27c-0.6,0-1,0.4-1,1v2.1c0,0.6,0.4,1,1,1s1-0.4,1-1V28C31.2,27.4,30.8,27,30.2,27z"/><path d="M35.2,35.6c-0.6,0-1,0.4-1,1v2.1c0,0.6,0.4,1,1,1s1-0.4,1-1v-2.1C36.2,36.1,35.8,35.6,35.2,35.6z"/><path d="M30.2,35.6c-0.6,0-1,0.4-1,1v2.1c0,0.6,0.4,1,1,1s1-0.4,1-1v-2.1C31.2,36.1,30.8,35.6,30.2,35.6z"/><path d="M35.2,44.3c-0.6,0-1,0.4-1,1v2.1c0,0.6,0.4,1,1,1s1-0.4,1-1v-2.1C36.2,44.7,35.8,44.3,35.2,44.3z"/><path d="M30.2,44.3c-0.6,0-1,0.4-1,1v2.1c0,0.6,0.4,1,1,1s1-0.4,1-1v-2.1C31.2,44.7,30.8,44.3,30.2,44.3z"/><path d="M35.2,52.9c-0.6,0-1,0.4-1,1v2.1c0,0.6,0.4,1,1,1s1-0.4,1-1v-2.1C36.2,53.4,35.8,52.9,35.2,52.9z"/><path d="M30.2,52.9c-0.6,0-1,0.4-1,1v2.1c0,0.6,0.4,1,1,1s1-0.4,1-1v-2.1C31.2,53.4,30.8,52.9,30.2,52.9z"/><path d="M87.8,89c0-0.6-0.4-1-1-1h-2.4V53.7c0-0.6-0.4-1-1-1h-4.6V18.2c0-0.6-0.4-1-1-1H57c-0.6,0-1,0.4-1,1v12.2L47.3,35V13.5  c0-0.6-0.4-1-1-1h-22c-0.6,0-1,0.4-1,1v47.6h-4.9c-0.6,0-1,0.4-1,1V88h-2.8c-0.6,0-1,0.4-1,1s0.4,1,1,1h72.3  C87.4,90,87.8,89.6,87.8,89z M41.9,88V40.1l20-10.4v24.1V88H41.9z M82.4,73.4H63.9v-5.2h18.6V73.4z M63.9,75.4h18.6v5.2H63.9V75.4z   M82.4,66.2H63.9v-4.9h18.6V66.2z M63.9,82.7h18.6V88H63.9V82.7z M82.4,59.3H63.9v-4.6h18.6V59.3z M58,19.2h18.8v33.5h-13V28  c0-0.3-0.2-0.7-0.5-0.9c-0.3-0.2-0.7-0.2-1,0L58,29.4V19.2z M25.3,14.5h20V36l-4.9,2.6c-0.3,0.2-0.5,0.5-0.5,0.9v21.6H25.3V14.5z   M19.3,63.1h20.5V88h-3.6v-9.7c0-3.7-2.9-6.7-6.5-6.7s-6.5,3-6.5,6.7V88h-3.9V63.1z M34.3,88h-9.1v-9.7c0-2.6,2-4.7,4.5-4.7  s4.5,2.1,4.5,4.7V88z"/><text x="0" y="115" fill="#000000" font-size="5px" font-weight="bold" font-family="'Helvetica Neue', Helvetica, Arial-Unicode, Arial, Sans-serif">Created by Made by Made</text><text x="0" y="120" fill="#000000" font-size="5px" font-weight="bold" font-family="'Helvetica Neue', Helvetica, Arial-Unicode, Arial, Sans-serif">from the Noun Project</text></svg>