<svg xmlns="http://www.w3.org/2000/svg" viewBox="0 0 615.1 133.01"><defs><style>.cls-1{fill:#870000;}.cls-2{font-size:14px;font-family:MyriadPro-Regular, Myriad Pro;}.cls-3{letter-spacing:-0.01em;}.cls-4{letter-spacing:-0.01em;}.cls-5{letter-spacing:0em;}.cls-6{letter-spacing:-0.01em;}.cls-7{letter-spacing:0.01em;}.cls-8{letter-spacing:-0.01em;}.cls-9{letter-spacing:-0.01em;}</style></defs><title>Asset 1</title><g id="Layer_2" data-name="Layer 2"><g id="Layer_1-2" data-name="Layer 1"><circle cx="127.26" cy="40.81" r="1.4"/><circle cx="127.26" cy="54.84" r="1.4"/><circle cx="164.76" cy="40.81" r="1.4"/><circle cx="164.76" cy="54.84" r="1.4"/><path d="M174,44.67,174,30.82l-9.22,3.38V25.77l4.82,4.4,4.34-4.75L146.1,0,133.72,11.09V4H127.1V17L118,25.17,122.29,30l4.81-4.31v8.16l-8.15-3-.05,13.86,8.66,3.18L118.91,51,119,64.9l8.17-3v3.5h8.2V58.89L143.21,56v9.4h21.51V61.5L174,64.9,174,51l-8.66-3.18ZM149,25.23h7.88v8.13H149Zm-13.63,0h7.89v8.13h-7.89ZM149.51,42l22.41-8.23,0,9.42-9.6,3.52ZM121,52.49,130.6,49l12.85,4.72L121,61.91Zm24.08,1.79-.12,0,.12,0ZM172,52.49l0,9.42L121,43.22l0-9.42Z"/><circle cx="186.26" cy="40.81" r="1.4"/><circle cx="186.26" cy="54.84" r="1.4"/><circle cx="223.76" cy="40.81" r="1.4"/><circle cx="223.76" cy="54.84" r="1.4"/><path d="M233,44.67,233,30.82l-9.22,3.38V25.77l4.82,4.4,4.34-4.75L205.1,0,192.72,11.09V4H186.1V17L177,25.17,181.29,30l4.81-4.31v8.16l-8.15-3-.05,13.86,8.66,3.18L177.91,51,178,64.9l8.17-3v3.5h8.2V58.89L202.21,56v9.4h21.51V61.5L233,64.9,233,51l-8.66-3.18ZM208,25.23h7.88v8.13H208Zm-13.63,0h7.89v8.13h-7.89ZM208.51,42l22.41-8.23,0,9.42-9.6,3.52ZM180,52.49,189.6,49l12.85,4.72L180,61.91Zm24.08,1.79-.12,0,.12,0ZM231,52.49l0,9.42L180,43.22l0-9.42Z"/><circle cx="245.26" cy="40.81" r="1.4"/><circle cx="245.26" cy="54.84" r="1.4"/><circle cx="282.76" cy="40.81" r="1.4"/><circle cx="282.76" cy="54.84" r="1.4"/><path d="M292,44.67,292,30.82l-9.22,3.38V25.77l4.82,4.4,4.34-4.75L264.1,0,251.72,11.09V4H245.1V17L236,25.17,240.29,30l4.81-4.31v8.16l-8.15-3-.05,13.86,8.66,3.18L236.91,51,237,64.9l8.17-3v3.5h8.2V58.89L261.21,56v9.4h21.51V61.5L292,64.9,292,51l-8.66-3.18ZM267,25.23h7.88v8.13H267Zm-13.63,0h7.89v8.13h-7.89ZM267.51,42l22.41-8.23,0,9.42-9.6,3.52ZM239,52.49,248.6,49l12.85,4.72L239,61.91Zm24.08,1.79-.12,0,.12,0ZM290,52.49l0,9.42L239,43.22l0-9.42Z"/><circle cx="304.26" cy="40.81" r="1.4"/><circle cx="304.26" cy="54.84" r="1.4"/><circle cx="341.76" cy="40.81" r="1.4"/><circle cx="341.76" cy="54.84" r="1.4"/><path d="M351,44.67,351,30.82l-9.22,3.38V25.77l4.82,4.4,4.34-4.75L323.1,0,310.72,11.09V4H304.1V17L295,25.17,299.29,30l4.81-4.31v8.16l-8.15-3-.05,13.86,8.66,3.18L295.91,51,296,64.9l8.17-3v3.5h8.2V58.89L320.21,56v9.4h21.51V61.5L351,64.9,351,51l-8.66-3.18ZM326,25.23h7.88v8.13H326Zm-13.63,0h7.89v8.13h-7.89ZM326.51,42l22.41-8.23,0,9.42-9.6,3.52ZM298,52.49,307.6,49l12.85,4.72L298,61.91Zm24.08,1.79-.12,0,.12,0ZM349,52.49l0,9.42L298,43.22l0-9.42Z"/><rect x="268.67" y="106" width="39" height="22"/><rect class="cls-1" x="410.67" y="106" width="39" height="22"/><text class="cls-2" transform="translate(315.39 121.11)">not o<tspan class="cls-3" x="30.74" y="0">c</tspan><tspan x="36.93" y="0">cupied </tspan></text><path d="M389.47.36l-3,7.74,3.87,2-4.64,7.12,2.73,3.14-3.81,12.46,2.19,2.45-1,7.72h5.92V60h-12V42h4V35.06l-2.1-2.44,2.21-12.84-3-2.8,3.49-7.4-3.62-1.51,1.68-7.9L369.29,12.78,365.22,17l-11,11.56,4.74-.42,2.86,36.77,22.42-1.23,25.22,2.13,3.36-36.77,4.26.11ZM367.18,37.28l-.78-6.68,6.68-.78.78,6.68Zm35.16,0-6.68-.78.78-6.68,6.68.78Z"/><path class="cls-1" d="M455.47.36l-3,7.74,3.87,2-4.64,7.12,2.73,3.14-3.81,12.46,2.19,2.45-1,7.72h5.92V60h-12V42h4V35.06l-2.1-2.44,2.21-12.84-3-2.8,3.49-7.4-3.62-1.51,1.68-7.9L435.29,12.78,431.22,17l-11,11.56,4.74-.42,2.86,36.77,22.42-1.23,25.22,2.13,3.36-36.77,4.26.11ZM433.18,37.28l-.78-6.68,6.68-.78.78,6.68Zm35.16,0-6.68-.78.78-6.68,6.68.78Z"/><path class="cls-1" d="M455.47.36l-3,7.74,3.87,2-4.64,7.12,2.73,3.14-3.81,12.46,2.19,2.45-1,7.72h5.92V60h-12V42h4V35.06l-2.1-2.44,2.21-12.84-3-2.8,3.49-7.4-3.62-1.51,1.68-7.9L435.29,12.78,431.22,17l-11,11.56,4.74-.42,2.86,36.77,22.42-1.23,25.22,2.13,3.36-36.77,4.26.11ZM433.18,37.28l-.78-6.68,6.68-.78.78,6.68Zm35.16,0-6.68-.78.78-6.68,6.68.78Z"/><path class="cls-1" d="M521.47.36l-3,7.74,3.87,2-4.64,7.12,2.73,3.14-3.81,12.46,2.19,2.45-1,7.72h5.92V60h-12V42h4V35.06l-2.1-2.44,2.21-12.84-3-2.8,3.49-7.4-3.62-1.51,1.68-7.9L501.29,12.78,497.22,17l-11,11.56,4.74-.42,2.86,36.77,22.42-1.23,25.22,2.13,3.36-36.77,4.26.11ZM499.18,37.28l-.78-6.68,6.68-.78.78,6.68Zm35.16,0-6.68-.78.78-6.68,6.68.78Z"/><path class="cls-1" d="M587.47.36l-3,7.74,3.87,2-4.64,7.12,2.73,3.14-3.81,12.46,2.19,2.45-1,7.72h5.92V60h-12V42h4V35.06l-2.1-2.44,2.21-12.84-3-2.8,3.49-7.4-3.62-1.51,1.68-7.9L567.29,12.78,563.22,17l-11,11.56,4.74-.42,2.86,36.77,22.42-1.23,25.22,2.13,3.36-36.77,4.26.11ZM565.18,37.28l-.78-6.68,6.68-.78.78,6.68Zm35.16,0-6.68-.78.78-6.68,6.68.78Z"/><path class="cls-1" d="M587.47.36l-3,7.74,3.87,2-4.64,7.12,2.73,3.14-3.81,12.46,2.19,2.45-1,7.72h5.92V60h-12V42h4V35.06l-2.1-2.44,2.21-12.84-3-2.8,3.49-7.4-3.62-1.51,1.68-7.9L567.29,12.78,563.22,17l-11,11.56,4.74-.42,2.86,36.77,22.42-1.23,25.22,2.13,3.36-36.77,4.26.11ZM565.18,37.28l-.78-6.68,6.68-.78.78,6.68Zm35.16,0-6.68-.78.78-6.68,6.68.78Z"/><circle cx="9.26" cy="40.81" r="1.4"/><circle cx="9.26" cy="54.84" r="1.4"/><circle cx="46.76" cy="40.81" r="1.4"/><circle cx="46.76" cy="54.84" r="1.4"/><path d="M56,44.67,56,30.82,46.77,34.2V25.77l4.82,4.4,4.34-4.75L28.1,0,15.72,11.09V4H9.1V17L0,25.17,4.29,30,9.1,25.64v8.16L1,30.81.91,44.67l8.66,3.18L.91,51,1,64.9l8.17-3v3.5h8.2V58.89L25.21,56v9.4H46.73V61.5L56,64.9,56,51l-8.66-3.18ZM31,25.23h7.88v8.13H31Zm-13.63,0h7.89v8.13H17.33ZM31.51,42,53.92,33.8l0,9.42-9.6,3.52ZM3,52.49,12.6,49l12.85,4.72L3,61.91Zm24.08,1.79-.12,0,.12,0ZM54,52.49l0,9.42L3,43.22,3,33.8Z"/><circle cx="68.26" cy="40.81" r="1.4"/><circle cx="68.26" cy="54.84" r="1.4"/><circle cx="105.76" cy="40.81" r="1.4"/><circle cx="105.76" cy="54.84" r="1.4"/><path d="M115,44.67,115,30.82l-9.22,3.38V25.77l4.82,4.4,4.34-4.75L87.1,0,74.72,11.09V4H68.1V17L59,25.17,63.29,30l4.81-4.31v8.16l-8.15-3-.05,13.86,8.66,3.18L59.91,51,60,64.9l8.17-3v3.5h8.2V58.89L84.21,56v9.4h21.51V61.5L115,64.9,115,51l-8.66-3.18ZM90,25.23h7.88v8.13H90Zm-13.63,0h7.89v8.13H76.33ZM90.51,42l22.41-8.23,0,9.42-9.6,3.52ZM62,52.49,71.6,49l12.85,4.72L62,61.91Zm24.08,1.79-.12,0,.12,0ZM113,52.49l0,9.42L62,43.22l0-9.42Z"/><text class="cls-2" transform="translate(456.39 112.71)">o<tspan class="cls-3" x="7.69" y="0">c</tspan><tspan x="13.87" y="0">cupied </tspan><tspan class="cls-4" x="56.98" y="0">b</tspan><tspan x="64.85" y="0">y c</tspan><tspan class="cls-5" x="80.68" y="0">r</tspan><tspan x="85.31" y="0">iminal</tspan><tspan class="cls-6" x="121.36" y="0">s</tspan><tspan x="126.75" y="0">, </tspan><tspan x="0" y="16.8">drug addi</tspan><tspan class="cls-7" x="56.8" y="16.8">c</tspan><tspan x="63.25" y="16.8">t</tspan><tspan class="cls-6" x="67.88" y="16.8">s</tspan><tspan x="73.27" y="16.8">, or p</tspan><tspan class="cls-8" x="102.34" y="16.8">r</tspan><tspan x="106.78" y="16.8">ostitu</tspan><tspan class="cls-9" x="140.26" y="16.8">t</tspan><tspan x="144.81" y="16.8">es</tspan></text><circle cx="90.25" cy="118" r="0.64"/><circle cx="90.25" cy="118" r="0.64"/><circle cx="107.45" cy="118" r="0.64"/><circle cx="107.45" cy="118" r="0.64"/><path d="M111.71,123.49l0-6.36-4.23,1.55v-3.87l2.21,2,2-2.18L98.89,103l-5.68,5.08v-3.23h-3v5.95L86,114.54l2,2.2,2.21-2v3.74l-3.74-1.37,0,6.36,4,1.46-4,1.46,0,6.36,3.75-1.38V133H94v-3l3.62-1.33V133h9.87v-1.79l4.25,1.56,0-6.36-4-1.46Zm-11.51-8.92h3.62v3.73H100.2Zm-6.25,0h3.62v3.73H93.95Zm6.5,7.71,10.28-3.77,0,4.32-4.4,1.62Zm-13.08,4.8,4.4-1.62,5.89,2.16L87.39,131.4Zm11,.82-.06,0,.06,0Zm12.33-.82,0,4.32-23.36-8.57,0-4.32Z"/><path d="M201.74,101.64l-1.42,3.64,1.81.95L200,109.58l1.28,1.48-1.79,5.86,1,1.15-.48,3.63h2.77v8h-5.62v-8.47H199V118l-1-1.15,1-6-1.39-1.32,1.63-3.48-1.69-.71.79-3.72-6.12,5.94-1.91,2-5.14,5.44,2.22-.2L188.8,132l10.5-.58,11.81,1,1.57-17.31,2,.05ZM191.3,119l-.36-3.15,3.13-.37.36,3.14Zm16.46,0-3.13-.37.36-3.14,3.13.37Z"/><text class="cls-2" transform="translate(122.14 122.11)">bo<tspan class="cls-8" x="15.65" y="0">r</tspan><tspan x="20.09" y="0">ded</tspan></text><text class="cls-2" transform="translate(222.14 121.11)">open</text></g></g></svg>