<svg xmlns="http://www.w3.org/2000/svg" xmlns:xlink="http://www.w3.org/1999/xlink" version="1.1" x="0px" y="0px" viewBox="0 0 100 125" enable-background="new 0 0 100 100" xml:space="preserve"><g><path fill="#000000" d="M61.842,47.632V33.421l-18.948,9.474v4.737h-9.474v9.474h9.474v9.474h-9.474v-9.474h-9.474v-9.474H5V95   h63.947l2.369-47.368H61.842z M23.947,85.526h-9.474v-9.474h9.474V85.526z M42.895,85.526h-9.474v-9.474h9.474V85.526z    M61.842,85.526h-9.474v-9.474h9.474V85.526z M61.842,66.579h-9.474v-9.474h9.474V66.579z"/><polygon fill="#000000" points="90.737,5 83.158,5 83.158,9.737 78.421,9.737 78.421,14.474 72.974,14.474 71.316,47.632    71.316,47.632 71.316,95 95,95  "/></g><text x="0" y="115" fill="#000000" font-size="5px" font-weight="bold" font-family="'Helvetica Neue', Helvetica, Arial-Unicode, Arial, Sans-serif">Created by Vicons Design</text><text x="0" y="120" fill="#000000" font-size="5px" font-weight="bold" font-family="'Helvetica Neue', Helvetica, Arial-Unicode, Arial, Sans-serif">from the Noun Project</text></svg>