<?xml version="1.0" encoding="utf-8"?>
<!-- Generator: Adobe Illustrator 21.1.0, SVG Export Plug-In . SVG Version: 6.00 Build 0)  -->
<svg version="1.1" id="Layer_1" xmlns="http://www.w3.org/2000/svg" xmlns:xlink="http://www.w3.org/1999/xlink" x="0px" y="0px"
	 viewBox="0 0 50.4 63" style="enable-background:new 0 0 50.4 63;" xml:space="preserve">
<style type="text/css">
	.st0{fill:#3B5249;}
</style>
<circle class="st0" cx="10.5" cy="37.4" r="1.1"/>
<circle class="st0" cx="10.5" cy="48.3" r="1.1"/>
<circle class="st0" cx="39.4" cy="37.4" r="1.1"/>
<circle class="st0" cx="39.4" cy="48.3" r="1.1"/>
<path class="st0" d="M46.5,40.4l0-10.7l-7.1,2.6l0-6.5l3.7,3.4l3.3-3.7L25,6l-9.5,8.5V9.1h-5.1v10l-7,6.3l3.3,3.7l3.7-3.3l0,6.3
	l-6.3-2.3l0,10.7l6.7,2.5L4,45.3l0,10.7l6.3-2.3l0,2.7h6.3v-5l6.1-2.2v7.2h16.6v0l0-3l7.1,2.6l0-10.7l-6.7-2.5L46.5,40.4z
	 M27.2,25.4h6.1v6.3h-6.1V25.4z M16.7,25.4h6.1v6.3h-6.1V25.4z M27.6,38.4L44.9,32l0,7.3L37.5,42L27.6,38.4z M5.6,46.4l7.4-2.7
	l9.9,3.6L5.7,53.7L5.6,46.4z M24.2,47.8L24.2,47.8L24.2,47.8L24.2,47.8z M44.9,46.4l0,7.3L5.6,39.3l0-7.3L44.9,46.4z"/>
</svg>
