<svg xmlns="http://www.w3.org/2000/svg" xmlns:xlink="http://www.w3.org/1999/xlink" version="1.1" x="0px" y="0px" viewBox="0 0 100 125" enable-background="new 0 0 100 100" xml:space="preserve"><g><path d="M34.263,24.103l0.255,2.3c10.129,4.41,21.63,4.41,31.759,0l0.262-2.3C56.264,19.552,44.533,19.552,34.263,24.103z"/></g><g><path d="M36.113,29.251c9.224,3.352,19.346,3.352,28.577,0c0.945,2.963,0.945,6.146,0,9.109   c-2.514,7.883-10.953,12.246-18.844,9.726C37.957,45.579,33.599,37.14,36.113,29.251z"/></g><path d="M69.641,16.368l-3.664,5.543c-9.955-4.236-21.203-4.236-31.15,0l-3.667-5.543c-0.053-0.074-0.095-0.155-0.134-0.242  c-0.288-0.705,0.053-1.515,0.765-1.803c4.664-1.891,8.921-4.64,12.556-8.104c3.385-3.239,8.72-3.239,12.105,0  c3.639,3.464,7.895,6.213,12.555,8.104c0.08,0.033,0.168,0.073,0.24,0.127C69.885,14.872,70.059,15.737,69.641,16.368z   M50.183,7.393l-0.724,2.252h-2.38c-0.033-0.275-0.281-0.47-0.556-0.437c-0.275,0.034-0.469,0.289-0.436,0.564  c0.033,0.267,0.281,0.469,0.562,0.435c0.115-0.014,0.223-0.073,0.302-0.161l1.919,1.396l-0.731,2.258  c-0.268-0.054-0.536,0.128-0.59,0.396c-0.054,0.274,0.127,0.536,0.395,0.589c0.275,0.054,0.537-0.127,0.592-0.395  c0.02-0.121,0-0.235-0.062-0.343l1.931-1.395l1.917,1.395c-0.135,0.248-0.049,0.55,0.186,0.685c0.242,0.134,0.553,0.046,0.686-0.201  c0.133-0.235,0.047-0.543-0.195-0.677c-0.105-0.061-0.221-0.075-0.342-0.055l-0.73-2.258l1.916-1.396  c0.195,0.208,0.51,0.215,0.711,0.028c0.209-0.189,0.217-0.51,0.027-0.712c-0.195-0.2-0.508-0.215-0.703-0.02  c-0.094,0.073-0.146,0.188-0.162,0.302h-2.373l-0.729-2.252c0.252-0.121,0.354-0.417,0.24-0.664  c-0.121-0.256-0.416-0.369-0.67-0.248c-0.248,0.12-0.355,0.416-0.241,0.671C49.995,7.259,50.077,7.345,50.183,7.393z"/><path d="M63.965,50.935c13.781,6.529,20.947,21.946,17.059,36.693c-19.498,8.675-41.753,8.675-61.252,0  c-3.888-14.747,3.284-30.164,17.06-36.693C44.781,57.229,56.021,57.229,63.965,50.935z M64.199,63.584  c-1.273,0.517-2.701,0.503-3.961-0.046c-3.078,4.075-2.26,9.865,1.816,12.937c0.664,0.503,1.387,0.904,2.145,1.206  c4.746-1.883,7.064-7.26,5.174-12.005c-0.301-0.758-0.709-1.48-1.197-2.138C66.914,64.087,65.473,64.101,64.199,63.584z"/><text x="0" y="115" fill="#000000" font-size="5px" font-weight="bold" font-family="'Helvetica Neue', Helvetica, Arial-Unicode, Arial, Sans-serif">Created by Aldric Rodríguez</text><text x="0" y="120" fill="#000000" font-size="5px" font-weight="bold" font-family="'Helvetica Neue', Helvetica, Arial-Unicode, Arial, Sans-serif">from the Noun Project</text></svg>