<?xml version="1.0" encoding="utf-8"?>
<!-- Generator: Adobe Illustrator 21.1.0, SVG Export Plug-In . SVG Version: 6.00 Build 0)  -->
<svg version="1.1" id="Layer_1" xmlns="http://www.w3.org/2000/svg" xmlns:xlink="http://www.w3.org/1999/xlink" x="0px" y="0px"
	 viewBox="0 0 100 51.9" style="enable-background:new 0 0 100 51.9;" xml:space="preserve">
<style type="text/css">
	.st0{fill:#006750;}
</style>
<g>
	<path class="st0" d="M22.8,32.7c-3.9-1.8-2.3-6.5-2.3-6.5s1-3.9,6.3-3.9s32.5-1.2,36-1.2c3.6,0,16.6,0,19.9,0
		c3.3,0,5.2,1.3,6.4,3.6s-1,5.3-2.5,6.7c-2,1.8-9.1,5.5-12,5.5c-1.3,0-38.4,0.2-39.7-0.1C33.6,36.4,22.8,32.7,22.8,32.7z"/>
</g>
<path class="st0" d="M90,18.5V20h-0.7l-0.7-0.6h-1.2v-4H80V17l-3.4-0.7v-0.7H72v0.7L66.2,16v0.3h-0.5H42.3H42L41.9,16l-0.7-0.8h-4.8
	l-0.1,0.9h-3.4v-0.9h-1L31,20.4h-8.5l-0.9-1.2h-0.7v2.1L17,24.6v1.6h3v-0.1c0,0,1.1-4.2,6.8-4.2c2.9,0,12.6-0.4,21-0.7
	c7.2-0.3,13.4-0.5,15-0.5h19.9c2.8,0,4.8,0.9,6.2,2.9h0.4h1.2V23h1.2v-0.6h0.9v-3.9H90z"/>
<polygon class="st0" points="5.2,11.9 5.2,12.5 30.9,13.1 30.9,13.4 35.6,13.4 35.6,14 36.3,14 36.9,14.5 39.6,14.5 39.6,13.7 
	40.6,13.7 42.3,15.7 65.7,15.7 65.7,14.4 72.4,14.4 73.4,9.2 64.7,7.3 63.5,5.2 63.5,3.9 54.7,3.9 54.7,5.3 52.6,7.8 51.4,7.8 
	51.4,7.2 48,7.2 48,8.4 41.8,9.1 41.8,9.7 40.4,9.7 40.4,9 37,9 35.7,10.8 30.8,10.8 30.8,11.1 "/>
</svg>
