<svg xmlns="http://www.w3.org/2000/svg" xmlns:xlink="http://www.w3.org/1999/xlink" version="1.1" x="0px" y="0px" viewBox="0 0 100 125" enable-background="new 0 0 100 100" xml:space="preserve"><path d="M66.368,44.506l3.874-27.361H31.513l3.892,27.361H66.368z M64.484,22.145l-2.458,17.361H39.744l-2.469-17.361H64.484z   M85.13,88.822l-14.058-9.373c5.586-2.753,9.549-8.535,9.884-15.17l0.003-0.063l-0.002-39.742l-0.003-0.121  C80.504,15.07,72.79,7.518,63.76,7.518h-1.812c-0.239-1.877-1.846-3.333-3.787-3.333s-3.549,1.456-3.788,3.333h-7.097  c-0.238-1.877-1.846-3.333-3.787-3.333c-1.941,0-3.548,1.456-3.787,3.333h-2.01c-9.042,0-16.75,7.583-17.183,16.905l-0.003,0.058  l0.002,39.736l0.003,0.122c0.303,6.214,3.887,11.771,9.062,14.681l-14.702,9.803c-0.848,0.565-1.424,1.428-1.625,2.427  c-0.201,1.001,0.001,2.02,0.565,2.864c0.708,1.065,1.897,1.702,3.179,1.702c0.762,0,1.498-0.225,2.117-0.642l7.843-5.229h46.101  l7.832,5.222c0.63,0.424,1.365,0.648,2.128,0.648c1.281,0,2.47-0.637,3.178-1.701C87.354,92.364,86.879,89.99,85.13,88.822z   M37.692,12.518H63.76c6.386,0,11.846,5.387,12.197,12.02l0.001,15.832c-7.06,7.571-18.162,12.447-24.677,12.447  c-0.142,0-0.281-0.003-0.417-0.008c-11.195-0.379-22.441-9.428-25.357-12.195L25.506,24.6C25.844,17.933,31.3,12.518,37.692,12.518z   M25.508,64.153l-0.001-16.979c5.466,4.276,15.11,10.291,25.188,10.632c7.352,0.222,17.68-4.245,25.263-10.587l0.001,16.869  c-0.341,6.18-4.999,11.311-10.874,11.991H36.159l-0.669-0.132C30.005,74.867,25.815,69.912,25.508,64.153z M29.697,84.945  l5.799-3.866h29.006l5.8,3.866H29.697z M45.287,65.208c0-3.215-2.614-5.83-5.827-5.83c-3.214,0-5.829,2.615-5.829,5.83  c0,3.214,2.615,5.829,5.829,5.829C42.673,71.037,45.287,68.422,45.287,65.208z M38.632,65.208c0-0.458,0.372-0.83,0.829-0.83  c0.456,0,0.827,0.372,0.827,0.83c0,0.457-0.371,0.829-0.827,0.829C39.003,66.037,38.632,65.665,38.632,65.208z M61.991,71.185  c3.296,0,5.978-2.681,5.978-5.975c0-3.296-2.682-5.978-5.978-5.978c-3.293,0-5.973,2.682-5.973,5.978  C56.019,68.504,58.698,71.185,61.991,71.185z M61.991,64.232c0.539,0,0.978,0.438,0.978,0.978c0,0.537-0.438,0.975-0.978,0.975  c-0.536,0-0.973-0.438-0.973-0.975C61.019,64.671,61.455,64.232,61.991,64.232z"/><text x="0" y="115" fill="#000000" font-size="5px" font-weight="bold" font-family="'Helvetica Neue', Helvetica, Arial-Unicode, Arial, Sans-serif">Created by Mushu</text><text x="0" y="120" fill="#000000" font-size="5px" font-weight="bold" font-family="'Helvetica Neue', Helvetica, Arial-Unicode, Arial, Sans-serif">from the Noun Project</text></svg>