<svg xmlns="http://www.w3.org/2000/svg" xmlns:xlink="http://www.w3.org/1999/xlink" version="1.1" x="0px" y="0px" viewBox="0 0 100 125" enable-background="new 0 0 100 100" xml:space="preserve"><g><g><path d="M86.116,46.458c-1.06,0-1.994,0.514-2.595,1.297c-0.181-3.067-0.78-6.021-1.736-8.812    c0.542,0.398,1.205,0.642,1.928,0.642c1.808,0,3.278-1.471,3.278-3.279c0-1.806-1.471-3.275-3.278-3.275    c-1.609,0-2.944,1.169-3.218,2.701c-1.401-3.02-3.237-5.796-5.433-8.247c0.207,0.041,0.421,0.064,0.64,0.064    c1.807,0,3.276-1.47,3.276-3.276c0-1.809-1.47-3.279-3.276-3.279c-1.809,0-3.279,1.471-3.279,3.279    c0,0.216,0.023,0.426,0.063,0.63c-2.184-1.963-4.63-3.638-7.273-4.976c1.488-0.31,2.61-1.631,2.61-3.21    c0-1.81-1.47-3.281-3.277-3.281c-1.809,0-3.28,1.472-3.28,3.281c0,0.621,0.184,1.195,0.484,1.69    c-3.014-1.115-6.23-1.805-9.578-2.002c0.781-0.6,1.295-1.534,1.295-2.595c0-1.806-1.471-3.275-3.278-3.275    c-1.807,0-3.276,1.47-3.276,3.275c0,1.061,0.513,1.995,1.295,2.595c-3.461,0.204-6.78,0.938-9.881,2.121    c0.588-0.593,0.952-1.407,0.952-2.306c0-1.807-1.471-3.276-3.279-3.276s-3.28,1.47-3.28,3.276c0,1.808,1.472,3.278,3.28,3.278    c0.016,0,0.03-0.004,0.046-0.005c-2.943,1.383-5.652,3.181-8.053,5.32c0.029-0.178,0.055-0.356,0.055-0.542    c0-1.809-1.471-3.279-3.279-3.279s-3.28,1.471-3.28,3.279c0,1.807,1.472,3.276,3.28,3.276c0.185,0,0.362-0.025,0.538-0.055    c-2.166,2.421-3.982,5.158-5.376,8.134c0.001-0.026,0.008-0.05,0.008-0.075c0-1.807-1.472-3.276-3.28-3.276    s-3.279,1.47-3.279,3.276c0,1.808,1.471,3.278,3.279,3.278c0.908,0,1.73-0.372,2.325-0.97c-1.186,3.104-1.922,6.428-2.126,9.894    c-0.6-0.782-1.533-1.296-2.592-1.296c-1.809,0-3.279,1.472-3.279,3.281c0,1.806,1.471,3.274,3.279,3.274    c1.059,0,1.991-0.513,2.591-1.293c0.176,2.979,0.746,5.852,1.655,8.572c-0.527-0.363-1.165-0.578-1.854-0.578    c-1.809,0-3.279,1.47-3.279,3.277c0,1.807,1.471,3.276,3.279,3.276c1.568,0,2.879-1.106,3.201-2.577    c1.378,2.981,3.181,5.726,5.334,8.156c-0.129-0.016-0.255-0.039-0.388-0.039c-1.809,0-3.279,1.471-3.279,3.279    s1.471,3.279,3.279,3.279s3.28-1.471,3.28-3.279c0-0.132-0.023-0.256-0.039-0.384c2.341,2.076,4.972,3.833,7.828,5.193    c-1.526,0.28-2.688,1.615-2.688,3.223c0,1.808,1.472,3.277,3.281,3.277c1.809,0,3.279-1.47,3.279-3.277    c0-0.698-0.223-1.344-0.596-1.877c3.351,1.177,6.943,1.835,10.684,1.876v6.999H24.633c-0.793,0-1.438,0.645-1.438,1.438v1.669    c0,0.793,0.646,1.438,1.438,1.438h51.155c0.793,0,1.438-0.646,1.438-1.438v-1.669c0-0.793-0.646-1.438-1.438-1.438H50.585v-6.999    c3.919-0.046,7.679-0.765,11.165-2.057c-0.303,0.497-0.486,1.074-0.486,1.697c0,1.806,1.472,3.275,3.28,3.275    c1.807,0,3.276-1.47,3.276-3.275c0-1.582-1.124-2.906-2.614-3.214c2.651-1.341,5.103-3.021,7.291-4.989    c-0.048,0.221-0.074,0.448-0.074,0.683c0,1.809,1.471,3.279,3.279,3.279c1.807,0,3.276-1.471,3.276-3.279    c0-1.807-1.47-3.276-3.276-3.276c-0.235,0-0.464,0.027-0.686,0.074c1.963-2.183,3.638-4.626,4.977-7.269    c0.278,1.528,1.611,2.692,3.218,2.692c1.809,0,3.28-1.472,3.28-3.28s-1.472-3.279-3.28-3.279c-0.64,0-1.233,0.191-1.738,0.51    c1.142-3.046,1.849-6.302,2.049-9.691c0.601,0.781,1.535,1.294,2.595,1.294c1.806,0,3.275-1.469,3.275-3.274    C89.392,47.93,87.922,46.458,86.116,46.458z M83.713,33.779c1.395,0,2.528,1.133,2.528,2.525c0,1.395-1.134,2.529-2.528,2.529    c-1.393,0-2.526-1.135-2.526-2.529C81.187,34.912,82.32,33.779,83.713,33.779z M64.546,14.185c1.394,0,2.527,1.136,2.527,2.531    c0,1.395-1.134,2.528-2.527,2.528c-1.396,0-2.53-1.134-2.53-2.528C62.016,15.32,63.15,14.185,64.546,14.185z M33.469,16.22    c0-1.393,1.135-2.526,2.53-2.526c1.395,0,2.529,1.134,2.529,2.526c0,1.395-1.135,2.528-2.529,2.528    C34.604,18.748,33.469,17.614,33.469,16.22z M16.657,38.08c-1.395,0-2.529-1.134-2.529-2.528c0-1.393,1.135-2.526,2.529-2.526    c1.396,0,2.53,1.134,2.53,2.526C19.188,36.946,18.053,38.08,16.657,38.08z M16.657,65.519c-1.395,0-2.529-1.134-2.529-2.526    c0-1.394,1.135-2.527,2.529-2.527c1.396,0,2.53,1.134,2.53,2.527C19.188,64.385,18.053,65.519,16.657,65.519z M36.468,85.647    c-1.396,0-2.531-1.134-2.531-2.527c0-1.396,1.136-2.533,2.531-2.533c1.395,0,2.529,1.137,2.529,2.533    C38.997,84.514,37.862,85.647,36.468,85.647z M76.477,91.556v1.669c0,0.38-0.309,0.688-0.688,0.688H24.633    c-0.38,0-0.688-0.309-0.688-0.688v-1.669c0-0.379,0.309-0.688,0.688-0.688h51.155C76.168,90.868,76.477,91.177,76.477,91.556z     M67.07,82.76c0,1.393-1.134,2.525-2.526,2.525c-1.396,0-2.53-1.133-2.53-2.525c0-1.396,1.135-2.531,2.53-2.531    C65.937,80.229,67.07,81.364,67.07,82.76z M85.741,64.181c0,1.396-1.135,2.53-2.53,2.53c-1.394,0-2.527-1.135-2.527-2.53    c0-1.395,1.134-2.529,2.527-2.529C84.606,61.651,85.741,62.786,85.741,64.181z M75.702,21.742c1.393,0,2.526,1.135,2.526,2.529    c0,1.393-1.134,2.526-2.526,2.526c-1.395,0-2.529-1.134-2.529-2.526C73.173,22.877,74.308,21.742,75.702,21.742z M47.662,13.81    c0-1.393,1.134-2.525,2.526-2.525c1.395,0,2.528,1.133,2.528,2.525c0,1.396-1.134,2.531-2.528,2.531    C48.796,16.341,47.662,15.205,47.662,13.81z M22.237,24.271c0-1.395,1.135-2.529,2.53-2.529c1.395,0,2.529,1.135,2.529,2.529    c0,1.393-1.135,2.526-2.529,2.526C23.372,26.798,22.237,25.664,22.237,24.271z M14.265,52.264c-1.395,0-2.529-1.133-2.529-2.524    c0-1.396,1.135-2.531,2.529-2.531c1.394,0,2.527,1.136,2.527,2.531C16.792,51.131,15.658,52.264,14.265,52.264z M27.335,75.088    c0,1.395-1.135,2.529-2.53,2.529c-1.395,0-2.529-1.135-2.529-2.529s1.135-2.529,2.529-2.529c0.602,0,1.146,0.22,1.581,0.571    c0.127,0.129,0.255,0.257,0.384,0.384C27.117,73.947,27.335,74.49,27.335,75.088z M78.229,75.239c0,1.395-1.134,2.529-2.526,2.529    c-1.395,0-2.529-1.135-2.529-2.529c0-1.393,1.135-2.526,2.529-2.526C77.095,72.713,78.229,73.847,78.229,75.239z M50.223,82.379    v0.375h-0.018l-0.017-0.369c-8.899,0-16.976-3.584-22.871-9.379c-0.128-0.154-0.269-0.295-0.422-0.424    c-5.78-5.893-9.354-13.956-9.354-22.843c0-18.002,14.646-32.648,32.646-32.648c18.002,0,32.647,14.646,32.647,32.648    C82.833,67.72,68.202,82.361,50.223,82.379z M86.116,52.264c-1.396,0-2.53-1.133-2.53-2.524c0-1.396,1.135-2.531,2.53-2.531    c1.393,0,2.525,1.136,2.525,2.531C88.642,51.131,87.509,52.264,86.116,52.264z"/><path d="M69.703,30.758l0.007-0.007l-0.265-0.265l-0.001-0.001l-0.265-0.265l-0.007,0.007c-5.024-4.891-11.604-7.616-18.609-7.71    v-0.009h-0.372h-0.003h-0.372v0.01C35.1,22.717,23.171,34.646,22.971,49.364h-0.01v0.375v0.375h0.009    c0.095,7.006,2.82,13.582,7.711,18.604l-0.007,0.007l0.265,0.265c0,0,0,0,0.001,0c0,0.001,0,0.001,0,0.001l0.265,0.265    l0.007-0.007c5.025,4.895,11.614,7.619,18.636,7.706v0.008h0.342h0.033h0.375v-0.01c14.821-0.217,26.817-12.343,26.817-27.213    v-0.375h-0.009C77.311,42.357,74.588,35.778,69.703,30.758z M76.616,51.277c-0.013,0.222-0.032,0.441-0.051,0.661    c-0.019,0.223-0.035,0.445-0.06,0.667c-0.023,0.218-0.054,0.435-0.083,0.651c-0.029,0.219-0.057,0.438-0.091,0.656    c-0.035,0.216-0.076,0.43-0.115,0.645c-0.04,0.215-0.078,0.43-0.123,0.643c-0.044,0.212-0.096,0.421-0.146,0.631    c-0.05,0.213-0.099,0.426-0.153,0.636c-0.055,0.206-0.116,0.409-0.175,0.613c-0.061,0.21-0.119,0.421-0.185,0.628    c-0.064,0.203-0.136,0.403-0.205,0.604c-0.07,0.204-0.138,0.409-0.212,0.611c-0.074,0.2-0.156,0.396-0.235,0.594    c-0.079,0.199-0.155,0.398-0.239,0.595c-0.083,0.193-0.172,0.383-0.26,0.573c-0.089,0.196-0.176,0.395-0.27,0.588    c-0.091,0.187-0.188,0.368-0.283,0.552c-0.1,0.192-0.196,0.387-0.3,0.576c-0.099,0.182-0.205,0.358-0.309,0.537    c-0.108,0.187-0.213,0.376-0.326,0.561c-0.105,0.174-0.219,0.343-0.329,0.514c-0.118,0.184-0.233,0.369-0.355,0.55    c-0.114,0.168-0.235,0.331-0.353,0.496c-0.126,0.177-0.249,0.356-0.38,0.53c-0.123,0.165-0.254,0.324-0.382,0.486    c-0.132,0.168-0.262,0.34-0.397,0.505c-0.132,0.159-0.271,0.312-0.406,0.469c-0.14,0.161-0.275,0.325-0.419,0.482    c-0.141,0.155-0.289,0.304-0.434,0.455c-0.06,0.062-0.118,0.125-0.178,0.188L55.367,54.376l-0.531,0.531l13.797,13.797    c-0.058,0.056-0.115,0.109-0.173,0.165c-0.152,0.145-0.301,0.294-0.457,0.436c-0.151,0.139-0.31,0.27-0.465,0.404    c-0.162,0.142-0.321,0.285-0.486,0.422c-0.155,0.129-0.317,0.251-0.476,0.376c-0.172,0.136-0.34,0.274-0.515,0.406    c-0.161,0.12-0.327,0.234-0.49,0.351c-0.179,0.129-0.355,0.26-0.537,0.384c-0.165,0.111-0.335,0.217-0.503,0.325    c-0.187,0.121-0.371,0.245-0.562,0.361c-0.169,0.103-0.342,0.199-0.514,0.299c-0.193,0.113-0.386,0.229-0.582,0.336    c-0.176,0.097-0.356,0.186-0.534,0.278c-0.198,0.103-0.395,0.208-0.595,0.306c-0.181,0.088-0.366,0.169-0.55,0.254    c-0.202,0.093-0.404,0.188-0.609,0.276c-0.187,0.08-0.377,0.153-0.565,0.229c-0.207,0.083-0.413,0.169-0.623,0.247    c-0.19,0.071-0.385,0.135-0.578,0.202c-0.212,0.073-0.424,0.148-0.638,0.217c-0.194,0.062-0.391,0.115-0.586,0.173    c-0.219,0.063-0.437,0.129-0.657,0.188c-0.196,0.052-0.396,0.097-0.595,0.145c-0.223,0.054-0.445,0.108-0.67,0.155    c-0.201,0.043-0.404,0.078-0.606,0.116c-0.227,0.043-0.453,0.087-0.682,0.123c-0.205,0.032-0.411,0.059-0.617,0.087    c-0.23,0.031-0.459,0.063-0.69,0.089c-0.209,0.022-0.419,0.038-0.629,0.056c-0.232,0.021-0.465,0.041-0.699,0.055    c-0.212,0.013-0.426,0.018-0.639,0.025c-0.172,0.006-0.343,0.011-0.515,0.014l-0.006-9.926l-0.006-9.74    c3.447-0.198,6.218-2.976,6.407-6.422h19.662c-0.002,0.163-0.007,0.325-0.012,0.487C76.635,50.827,76.629,51.054,76.616,51.277z     M48.728,76.17c-0.239-0.014-0.478-0.033-0.717-0.053c-0.19-0.016-0.382-0.028-0.571-0.048c-0.237-0.024-0.472-0.057-0.707-0.087    c-0.189-0.024-0.381-0.046-0.57-0.074c-0.233-0.036-0.465-0.079-0.696-0.121c-0.188-0.033-0.376-0.063-0.562-0.101    c-0.236-0.048-0.47-0.104-0.703-0.158c-0.18-0.041-0.36-0.078-0.538-0.123c-0.242-0.061-0.48-0.131-0.72-0.198    c-0.168-0.048-0.338-0.091-0.505-0.142c-0.256-0.078-0.507-0.165-0.76-0.251c-0.148-0.05-0.298-0.095-0.444-0.147    c-0.395-0.142-0.785-0.292-1.172-0.452c-0.133-0.055-0.263-0.117-0.396-0.174c-0.255-0.11-0.511-0.22-0.762-0.338    c-0.165-0.078-0.325-0.163-0.488-0.244c-0.215-0.106-0.431-0.211-0.644-0.324c-0.171-0.091-0.339-0.19-0.509-0.285    c-0.199-0.112-0.399-0.221-0.596-0.338c-0.171-0.102-0.338-0.211-0.506-0.316c-0.191-0.12-0.383-0.237-0.57-0.362    c-0.169-0.111-0.333-0.229-0.499-0.346c-0.183-0.127-0.367-0.253-0.547-0.385c-0.166-0.122-0.328-0.251-0.491-0.377    c-0.175-0.135-0.351-0.269-0.521-0.407c-0.162-0.132-0.32-0.27-0.48-0.405c-0.167-0.143-0.335-0.285-0.5-0.432    c-0.156-0.142-0.311-0.287-0.465-0.432c-0.116-0.109-0.232-0.22-0.348-0.332l7.015-7.014l6.89-6.891    c1.165,1.045,2.63,1.649,4.19,1.729l0.006,9.782l0.006,9.879c-0.181-0.003-0.36-0.008-0.541-0.014    C49.113,76.185,48.92,76.18,48.728,76.17z M31.211,68.188c-0.113-0.115-0.225-0.232-0.335-0.351    c-0.144-0.152-0.288-0.305-0.428-0.461c-0.147-0.165-0.29-0.333-0.433-0.501c-0.136-0.159-0.273-0.318-0.406-0.48    c-0.138-0.17-0.27-0.343-0.402-0.516c-0.129-0.166-0.259-0.33-0.382-0.498c-0.13-0.176-0.252-0.354-0.376-0.532    c-0.119-0.172-0.241-0.341-0.356-0.515c-0.12-0.18-0.232-0.364-0.348-0.547c-0.11-0.176-0.225-0.351-0.33-0.528    c-0.11-0.186-0.213-0.374-0.319-0.562c-0.102-0.182-0.208-0.36-0.306-0.544c-0.102-0.191-0.194-0.386-0.291-0.579    c-0.093-0.184-0.188-0.365-0.276-0.552c-0.104-0.221-0.199-0.445-0.297-0.669c-0.137-0.312-0.268-0.628-0.393-0.945    c-0.092-0.234-0.187-0.468-0.271-0.704c-0.066-0.185-0.124-0.372-0.186-0.559c-0.072-0.214-0.146-0.427-0.213-0.643    c-0.059-0.193-0.109-0.39-0.164-0.585c-0.06-0.212-0.122-0.424-0.177-0.638c-0.05-0.198-0.092-0.398-0.138-0.598    c-0.049-0.214-0.1-0.427-0.144-0.642c-0.041-0.202-0.074-0.406-0.11-0.609c-0.038-0.216-0.079-0.431-0.112-0.648    c-0.031-0.204-0.055-0.409-0.081-0.614c-0.028-0.219-0.059-0.438-0.081-0.658c-0.021-0.207-0.036-0.415-0.053-0.623    c-0.018-0.22-0.036-0.439-0.048-0.66c-0.012-0.211-0.018-0.423-0.024-0.635c-0.005-0.159-0.009-0.318-0.012-0.479h19.668    c0.084,1.549,0.688,3.005,1.728,4.168l-6.891,6.891L31.211,68.188z M23.759,48.202c0.013-0.227,0.033-0.452,0.052-0.678    c0.018-0.217,0.034-0.434,0.058-0.649c0.024-0.228,0.057-0.454,0.087-0.68c0.028-0.21,0.055-0.419,0.087-0.627    c0.037-0.229,0.08-0.456,0.123-0.684c0.037-0.202,0.072-0.403,0.114-0.604c0.049-0.23,0.104-0.458,0.159-0.687    c0.046-0.193,0.089-0.387,0.14-0.578c0.062-0.234,0.131-0.465,0.198-0.697c0.053-0.181,0.103-0.362,0.159-0.541    c0.075-0.238,0.158-0.473,0.24-0.707c0.059-0.17,0.114-0.341,0.177-0.509c0.09-0.243,0.188-0.481,0.284-0.721    c0.063-0.155,0.123-0.312,0.188-0.466c0.105-0.248,0.22-0.492,0.333-0.735c0.065-0.142,0.127-0.285,0.195-0.425    c0.123-0.253,0.254-0.502,0.385-0.75c0.065-0.126,0.129-0.255,0.197-0.38c0.143-0.262,0.294-0.519,0.445-0.774    c0.063-0.107,0.123-0.217,0.188-0.322c0.17-0.277,0.347-0.549,0.526-0.819c0.053-0.081,0.104-0.164,0.157-0.244    c0.201-0.298,0.411-0.589,0.625-0.878c0.037-0.05,0.071-0.102,0.108-0.151c0.629-0.84,1.312-1.636,2.033-2.395l13.914,13.914    c-0.896,1.087-1.463,2.453-1.545,3.948H23.721c0.002-0.164,0.007-0.328,0.013-0.492C23.74,48.648,23.746,48.425,23.759,48.202z     M33.365,29.306c0.322-0.265,0.649-0.522,0.983-0.772c0.049-0.037,0.101-0.071,0.15-0.107c0.289-0.214,0.581-0.424,0.879-0.626    c0.08-0.054,0.163-0.104,0.243-0.157c0.271-0.179,0.542-0.356,0.819-0.526c0.105-0.063,0.213-0.122,0.319-0.185    c0.258-0.153,0.516-0.306,0.779-0.449c0.121-0.066,0.246-0.127,0.368-0.191c0.252-0.133,0.504-0.266,0.761-0.39    c0.139-0.067,0.28-0.129,0.42-0.193c0.245-0.114,0.49-0.229,0.739-0.335c0.153-0.065,0.31-0.125,0.465-0.188    c0.24-0.097,0.479-0.195,0.724-0.286c0.166-0.062,0.335-0.116,0.503-0.175c0.236-0.082,0.472-0.165,0.711-0.241    c0.18-0.057,0.361-0.106,0.542-0.159c0.231-0.067,0.463-0.137,0.697-0.198c0.19-0.05,0.383-0.094,0.575-0.139    c0.229-0.056,0.458-0.111,0.69-0.16c0.198-0.042,0.399-0.077,0.6-0.114c0.229-0.042,0.456-0.086,0.687-0.123    c0.208-0.032,0.417-0.059,0.627-0.087c0.226-0.03,0.452-0.062,0.68-0.087c0.216-0.023,0.433-0.04,0.649-0.058    c0.226-0.019,0.45-0.039,0.678-0.052c0.223-0.013,0.446-0.019,0.67-0.025c0.164-0.006,0.328-0.011,0.492-0.013l0.007,9.922    l0.006,9.748c-1.702,0.09-3.239,0.809-4.386,1.926L31.54,30.961c0.58-0.575,1.186-1.127,1.816-1.647    C33.359,29.311,33.362,29.309,33.365,29.306z M51.68,23.304c0.222,0.012,0.443,0.03,0.664,0.048    c0.206,0.017,0.412,0.031,0.617,0.053c0.226,0.023,0.449,0.054,0.673,0.083c0.199,0.025,0.398,0.049,0.597,0.078    c0.227,0.035,0.451,0.077,0.677,0.117c0.193,0.035,0.388,0.066,0.58,0.105c0.231,0.047,0.461,0.102,0.69,0.154    c0.183,0.042,0.365,0.08,0.547,0.126c0.244,0.062,0.485,0.133,0.727,0.201c0.165,0.047,0.331,0.089,0.494,0.139    c0.276,0.085,0.549,0.179,0.821,0.271c0.126,0.043,0.254,0.081,0.379,0.126c0.796,0.285,1.577,0.609,2.342,0.971    c0.107,0.051,0.212,0.106,0.318,0.159c0.272,0.133,0.544,0.267,0.812,0.409c0.139,0.074,0.274,0.154,0.412,0.231    c0.231,0.129,0.465,0.257,0.692,0.393c0.147,0.088,0.29,0.182,0.436,0.272c0.215,0.134,0.431,0.267,0.642,0.407    c0.15,0.1,0.297,0.206,0.445,0.309c0.201,0.14,0.401,0.277,0.599,0.422c0.152,0.112,0.302,0.23,0.452,0.347    c0.188,0.145,0.377,0.288,0.562,0.438c0.15,0.123,0.298,0.251,0.446,0.377c0.179,0.152,0.357,0.303,0.532,0.46    c0.149,0.134,0.296,0.273,0.442,0.411c0.122,0.113,0.243,0.229,0.363,0.346l-7.018,7.015l-6.894,6.892    c-1.155-1.035-2.606-1.638-4.152-1.725L50.57,29.919l-0.004-6.651c0.16,0.003,0.319,0.007,0.479,0.012    C51.257,23.286,51.469,23.292,51.68,23.304z M45.903,54.024c-1.145-1.15-1.775-2.673-1.775-4.285c0-3.342,2.72-6.061,6.075-6.061    c1.606,0.004,3.119,0.631,4.262,1.765l0.009,0.009c1.146,1.146,1.778,2.669,1.778,4.287c0,3.331-2.711,6.049-6.043,6.059h-0.133    C48.501,55.769,47.022,55.144,45.903,54.024z M56.985,49.364c-0.085-1.553-0.683-3.011-1.723-4.171l6.899-6.897l7.011-7.008    c0.113,0.116,0.225,0.233,0.336,0.352c0.144,0.154,0.289,0.308,0.43,0.464c0.15,0.169,0.296,0.341,0.442,0.513    c0.134,0.158,0.269,0.314,0.398,0.475c0.145,0.178,0.282,0.359,0.422,0.54c0.123,0.16,0.248,0.319,0.367,0.482    c0.136,0.185,0.264,0.372,0.394,0.559c0.115,0.166,0.232,0.33,0.344,0.498c0.126,0.191,0.246,0.386,0.367,0.58    c0.104,0.168,0.212,0.335,0.312,0.505c0.118,0.199,0.229,0.401,0.342,0.604c0.096,0.171,0.193,0.34,0.284,0.513    c0.108,0.204,0.209,0.411,0.312,0.618c0.087,0.175,0.177,0.349,0.259,0.525c0.099,0.21,0.189,0.422,0.281,0.634    c0.078,0.179,0.158,0.354,0.231,0.534c0.089,0.216,0.169,0.435,0.252,0.652c0.068,0.18,0.14,0.358,0.204,0.54    c0.078,0.221,0.147,0.444,0.22,0.667c0.06,0.183,0.122,0.364,0.178,0.548c0.067,0.226,0.126,0.453,0.188,0.681    c0.05,0.185,0.104,0.368,0.15,0.555c0.058,0.231,0.105,0.466,0.156,0.699c0.04,0.185,0.085,0.368,0.122,0.554    c0.047,0.242,0.085,0.487,0.126,0.731c0.03,0.18,0.064,0.357,0.091,0.538c0.038,0.254,0.064,0.511,0.095,0.768    c0.02,0.173,0.045,0.344,0.062,0.518c0.027,0.281,0.043,0.564,0.062,0.848c0.01,0.15,0.025,0.299,0.032,0.45    c0.016,0.31,0.019,0.622,0.023,0.934H56.985z"/></g></g><text x="0" y="115" fill="#000000" font-size="5px" font-weight="bold" font-family="'Helvetica Neue', Helvetica, Arial-Unicode, Arial, Sans-serif">Created by Aurimas Grajauskas</text><text x="0" y="120" fill="#000000" font-size="5px" font-weight="bold" font-family="'Helvetica Neue', Helvetica, Arial-Unicode, Arial, Sans-serif">from the Noun Project</text></svg>